<?xml version="1.0" standalone="no"?>
<!DOCTYPE svg PUBLIC "-//W3C//DTD SVG 20010904//EN"
 "http://www.w3.org/TR/2001/REC-SVG-20010904/DTD/svg10.dtd">
<svg version="1.0" xmlns="http://www.w3.org/2000/svg"
 width="400.000000pt" height="400.000000pt" viewBox="0 0 400.000000 400.000000"
 preserveAspectRatio="xMidYMid meet">
<metadata>
Created by potrace 1.11, written by Peter Selinger 2001-2013
</metadata>
<g transform="translate(0.000000,400.000000) scale(0.100000,-0.100000)"
fill="#000000" stroke="none">
<path d="M660 1960 l0 -560 115 0 115 0 2 394 3 394 137 -391 136 -392 94 -3
95 -3 133 388 c73 213 137 392 142 397 4 6 8 -169 8 -387 l0 -397 115 0 115 0
0 560 0 560 -174 0 -175 0 -71 -222 c-183 -569 -178 -555 -188 -528 -6 14 -65
188 -133 388 l-124 362 -172 0 -173 0 0 -560z"/>
<path d="M1992 2503 c3 -10 69 -262 148 -560 l144 -543 122 0 123 0 9 33 c5
17 47 188 93 379 46 191 86 348 89 348 3 0 48 -171 100 -380 l95 -380 121 0
120 0 150 558 150 557 -115 3 c-68 2 -117 -1 -121 -7 -3 -6 -46 -179 -95 -386
-49 -206 -92 -372 -95 -368 -4 5 -48 178 -99 386 l-93 378 -116 -3 -115 -3
-96 -377 c-53 -208 -98 -374 -102 -370 -3 4 -41 158 -83 342 -43 184 -82 352
-87 373 l-10 37 -121 0 c-110 0 -120 -2 -116 -17z"/>
</g>
</svg>
